<?xml version="1.0" encoding="iso-8859-1"?>
<!-- Generator: Adobe Illustrator 16.0.0, SVG Export Plug-In . SVG Version: 6.00 Build 0)  -->
<!DOCTYPE svg PUBLIC "-//W3C//DTD SVG 1.1//EN" "http://www.w3.org/Graphics/SVG/1.1/DTD/svg11.dtd">
<svg version="1.1" id="Capa_1" xmlns="http://www.w3.org/2000/svg" xmlns:xlink="http://www.w3.org/1999/xlink" x="0px" y="0px"
	 width="445.068px" height="445.067px" viewBox="0 0 445.068 445.067" style="enable-background:new 0 0 445.068 445.067;"
	 xml:space="preserve">
<g>
	<g>
		<path d="M412.067,225.13h-0.755c-7.774-86.751-57.385-158.661-124.514-186.268c-1.884,9.285-6.13,18.456-12.394,26.966
			c56.553,23.485,98.762,84.848,106.316,159.302H66.344c7.487-73.698,48.903-134.554,104.604-158.565
			c-5.881-7.889-9.936-16.361-12.135-24.987C94.869,70.982,48.08,141.095,40.544,225.13H33.42c-16.084,0-25.58,12.354-21.209,27.607
			L59.478,417.46c4.37,15.243,20.961,27.607,37.045,27.607h247.574c16.084,0,32.923-12.288,37.608-27.444l50.996-165.049
			C437.387,237.418,428.151,225.13,412.067,225.13z"/>
		<path d="M222.261,93.244l0.793-0.593c18.476-7.458,32.619-18.465,41.971-30.371c6.941-8.835,11.13-18.14,12.574-26.88
			c1.826-11.025-0.774-21.143-8.387-28.124C263.389,1.941,257.336,0,251.599,0c-15.75,0.01-29.157,14.755-29.157,14.755h-0.182
			c0,0-13.407-14.745-29.156-14.745c-5.738,0-11.791,1.922-17.614,7.258c-8.138,7.458-10.566,18.551-7.86,30.552
			c1.855,8.195,6.11,16.811,12.594,25.006C189.681,74.779,203.853,85.814,222.261,93.244z"/>
	</g>
</g>
<g>
</g>
<g>
</g>
<g>
</g>
<g>
</g>
<g>
</g>
<g>
</g>
<g>
</g>
<g>
</g>
<g>
</g>
<g>
</g>
<g>
</g>
<g>
</g>
<g>
</g>
<g>
</g>
<g>
</g>
</svg>
